<svg width="24" height="24" viewBox="0 0 24 24" fill="none" xmlns="http://www.w3.org/2000/svg">
<path d="M1.99902 19.9919V11.9953C1.99902 11.465 2.20965 10.9566 2.58457 10.5816C2.95948 10.2067 3.46798 9.99609 3.99819 9.99609H19.9915C20.5217 9.99609 21.0302 10.2067 21.4051 10.5816C21.7801 10.9566 21.9907 11.465 21.9907 11.9953V19.9919" stroke="white" stroke-width="1.99917" stroke-linecap="round" stroke-linejoin="round"/>
<path d="M3.99805 9.99555V5.99721C3.99805 5.467 4.20867 4.95851 4.58359 4.58359C4.95851 4.20867 5.467 3.99805 5.99721 3.99805H17.9922C18.5224 3.99805 19.0309 4.20867 19.4058 4.58359C19.7808 4.95851 19.9914 5.467 19.9914 5.99721V9.99555" stroke="white" stroke-width="1.99917" stroke-linecap="round" stroke-linejoin="round"/>
<path d="M11.9951 3.99805V9.99555" stroke="white" stroke-width="1.99917" stroke-linecap="round" stroke-linejoin="round"/>
<path d="M1.99902 17.9922H21.9907" stroke="white" stroke-width="1.99917" stroke-linecap="round" stroke-linejoin="round"/>
</svg>
