<svg width="24" height="24" viewBox="0 0 24 24" fill="none" xmlns="http://www.w3.org/2000/svg">
<path d="M15.4932 7.49659L17.7922 9.79563C17.9791 9.97878 18.2303 10.0814 18.4919 10.0814C18.7536 10.0814 19.0048 9.97878 19.1916 9.79563L21.2907 7.6965C21.4739 7.50965 21.5765 7.25844 21.5765 6.9968C21.5765 6.73515 21.4739 6.48394 21.2907 6.29709L18.9917 3.99805" stroke="white" stroke-width="1.99917" stroke-linecap="round" stroke-linejoin="round"/>
<path d="M20.9915 1.99902L11.3955 11.595" stroke="white" stroke-width="1.99917" stroke-linecap="round" stroke-linejoin="round"/>
<path d="M7.49673 20.9915C10.533 20.9915 12.9944 18.5301 12.9944 15.4938C12.9944 12.4575 10.533 9.99609 7.49673 9.99609C4.46043 9.99609 1.99902 12.4575 1.99902 15.4938C1.99902 18.5301 4.46043 20.9915 7.49673 20.9915Z" stroke="white" stroke-width="1.99917" stroke-linecap="round" stroke-linejoin="round"/>
</svg>
