<svg width="24" height="24" viewBox="0 0 24 24" fill="none" xmlns="http://www.w3.org/2000/svg">
<path d="M21.9912 16.9129V19.9117C21.9923 20.19 21.9353 20.4656 21.8237 20.7207C21.7122 20.9757 21.5486 21.2047 21.3435 21.3929C21.1384 21.5811 20.8962 21.7244 20.6325 21.8136C20.3688 21.9028 20.0893 21.9359 19.8121 21.9108C16.7362 21.5766 13.7816 20.5255 11.1857 18.8421C8.7705 17.3074 6.72286 15.2598 5.18816 12.8446C3.49884 10.2369 2.44755 7.26792 2.11944 4.17821C2.09446 3.90179 2.12731 3.6232 2.2159 3.36018C2.30449 3.09715 2.44688 2.85545 2.63399 2.65047C2.82111 2.44549 3.04886 2.28171 3.30274 2.16957C3.55662 2.05743 3.83107 1.99938 4.10861 1.99912H7.10736C7.59247 1.99435 8.06276 2.16613 8.43057 2.48245C8.79839 2.79877 9.03863 3.23805 9.10653 3.7184C9.2331 4.67807 9.46783 5.62034 9.80624 6.52723C9.94072 6.88501 9.96983 7.27384 9.89011 7.64765C9.81039 8.02146 9.62518 8.36458 9.35642 8.63635L8.08695 9.90582C9.50992 12.4083 11.582 14.4804 14.0845 15.9033L15.3539 14.6339C15.6257 14.3651 15.9688 14.1799 16.3426 14.1002C16.7164 14.0204 17.1053 14.0496 17.463 14.184C18.3699 14.5225 19.3122 14.7572 20.2719 14.8837C20.7574 14.9523 21.2009 15.1968 21.5179 15.571C21.8349 15.9451 22.0033 16.4227 21.9912 16.9129Z" stroke="white" stroke-width="1.99917" stroke-linecap="round" stroke-linejoin="round"/>
</svg>
