<svg width="24" height="24" viewBox="0 0 24 24" fill="none" xmlns="http://www.w3.org/2000/svg">
<path d="M1.99902 8.99638C2.79434 8.99638 3.55709 9.31232 4.11946 9.87469C4.68183 10.4371 4.99777 11.1998 4.99777 11.9951C4.99777 12.7904 4.68183 13.5532 4.11946 14.1156C3.55709 14.6779 2.79434 14.9939 1.99902 14.9939V16.993C1.99902 17.5233 2.20965 18.0318 2.58457 18.4067C2.95948 18.7816 3.46798 18.9922 3.99819 18.9922H19.9915C20.5217 18.9922 21.0302 18.7816 21.4051 18.4067C21.7801 18.0318 21.9907 17.5233 21.9907 16.993V14.9939C21.1954 14.9939 20.4326 14.6779 19.8703 14.1156C19.3079 13.5532 18.9919 12.7904 18.9919 11.9951C18.9919 11.1998 19.3079 10.4371 19.8703 9.87469C20.4326 9.31232 21.1954 8.99638 21.9907 8.99638V6.99721C21.9907 6.467 21.7801 5.95851 21.4051 5.58359C21.0302 5.20867 20.5217 4.99805 19.9915 4.99805H3.99819C3.46798 4.99805 2.95948 5.20867 2.58457 5.58359C2.20965 5.95851 1.99902 6.467 1.99902 6.99721V8.99638Z" stroke="white" stroke-width="1.99917" stroke-linecap="round" stroke-linejoin="round"/>
<path d="M12.9941 4.99805V6.99805" stroke="white" stroke-width="1.99917" stroke-linecap="round" stroke-linejoin="round"/>
<path d="M12.9941 16.9932V18.9932" stroke="white" stroke-width="1.99917" stroke-linecap="round" stroke-linejoin="round"/>
<path d="M12.9941 10.9951V12.9951" stroke="white" stroke-width="1.99917" stroke-linecap="round" stroke-linejoin="round"/>
</svg>
