<svg width="77" height="72" viewBox="0 0 77 72" fill="none" xmlns="http://www.w3.org/2000/svg">
<path d="M1.75013 39.9339C0.5834 38.7672 3.77417e-05 37.3529 3.7236e-05 35.6912C3.67302e-05 34.0295 0.583399 32.6153 1.75013 31.4486L31.4486 1.75011C32.6153 0.583383 34.0296 1.91968e-05 35.6913 1.93654e-05C37.353 1.9534e-05 38.7672 0.583382 39.9339 1.75011L58.8667 20.6829L50.3814 20.6829L35.6913 5.99275L5.99277 35.6912L35.6913 65.3897L50.4344 50.6466L58.9197 50.6466L39.9339 69.6324C38.7672 70.7991 37.353 71.3825 35.6913 71.3825C34.0296 71.3825 32.6153 70.7991 31.4486 69.6324L1.75013 39.9339ZM22.9633 35.6912L31.979 26.6756L70.9052 26.6756C71.7537 26.6756 72.5492 26.8347 73.2917 27.1529C74.0341 27.4711 74.6705 27.8954 75.2009 28.4257C75.7666 28.9914 76.1997 29.6366 76.5002 30.3614C76.8007 31.0862 76.951 31.8729 76.951 32.7214L76.8979 38.7141C76.8626 39.5273 76.6946 40.2963 76.3941 41.0211C76.0936 41.7458 75.6782 42.3734 75.1478 42.9037C74.6175 43.4341 73.9988 43.8583 73.2917 44.1765C72.5846 44.4947 71.8068 44.6538 70.9582 44.6538L31.979 44.7069L22.9633 35.6912ZM70.9582 38.7141L70.9582 32.7744L70.9582 38.7141ZM31.4486 35.6912L34.4185 38.6611L59.0258 38.6611V35.6912L58.9728 32.6684L34.4715 32.6684L31.4486 35.6912ZM59.0258 35.6912L58.9728 32.6684L59.0258 35.6912V38.6611V35.6912Z" fill="#c62828"/>
</svg>
