<svg width="27" height="31" viewBox="0 0 27 31" fill="none" xmlns="http://www.w3.org/2000/svg">
<path d="M5.77984 29.8654L5.93691 20.8667L3.53727 20.8248C2.53743 20.8074 1.69366 20.4426 1.00599 19.7305C0.318309 19.0184 -0.0168029 18.1624 0.000649533 17.1626C0.0133025 16.4377 0.224943 15.7725 0.635572 15.1671C1.0462 14.5617 1.57908 14.1146 2.23422 13.826L12.1336 9.64816L12.1507 8.6733C11.2565 8.33265 10.5411 7.77633 10.0045 7.00434C9.46785 6.23236 9.20784 5.37144 9.22442 4.42159C9.24623 3.17178 9.70221 2.11707 10.5923 1.25748C11.4825 0.39788 12.5525 -0.0210103 13.8023 0.000805156C15.0521 0.0226207 16.1068 0.478597 16.9664 1.36874C17.826 2.25887 18.2449 3.32885 18.223 4.57866L15.2235 4.5263C15.2309 4.10136 15.0934 3.74266 14.811 3.45019C14.5285 3.15771 14.1748 3.00777 13.7499 3.00035C13.325 2.99293 12.9663 3.13044 12.6738 3.41288C12.3813 3.69532 12.2314 4.04901 12.224 4.47394C12.2165 4.89888 12.3541 5.25758 12.6365 5.55006C12.9189 5.84253 13.2726 5.99248 13.6976 5.99989C14.1225 6.00731 14.4762 6.15726 14.7586 6.44973C15.0411 6.7422 15.1786 7.10091 15.1711 7.52584L15.1332 9.70051L24.8808 14.2213C25.5254 14.5326 26.0424 14.998 26.4317 15.6174C26.8209 16.2367 27.0092 16.9089 26.9965 17.6338C26.9791 18.6336 26.6143 19.4774 25.9022 20.1651C25.1901 20.8527 24.3341 21.1878 23.3343 21.1704L20.9346 21.1285L20.7776 30.1271L5.77984 29.8654ZM3.58963 17.8253L5.98927 17.8672L6.01544 16.3674L21.0132 16.6292L20.987 18.129L23.3866 18.1708C23.5616 18.1739 23.7064 18.1139 23.8211 17.9909C23.9357 17.8679 23.9948 17.7064 23.9983 17.5064C24.0005 17.3814 23.9711 17.2747 23.9101 17.1861C23.8492 17.0975 23.7566 17.0271 23.6325 16.975L13.5876 12.2989L3.38561 16.6215C3.25975 16.6694 3.16482 16.7365 3.1008 16.8229C3.03678 16.9093 3.00368 17.0149 3.0015 17.1399C2.99801 17.3399 3.05142 17.5033 3.16172 17.6303C3.27202 17.7572 3.41466 17.8222 3.58963 17.8253ZM8.83174 26.9182L17.8304 27.0752L17.9613 19.5764L8.96263 19.4193L8.83174 26.9182ZM8.96263 19.4193L17.9613 19.5764L8.96263 19.4193Z" fill="white"/>
</svg>
