<svg width="21" height="21" viewBox="0 0 21 21" fill="none" xmlns="http://www.w3.org/2000/svg">
<path d="M18.4 20.6L11.8 14H0.6V11H8.8L0 2.2L1.4 0.8L19.8 19.2L18.4 20.6ZM17.45 14L16.6 13.15V11H18.1V14H17.45ZM19.1 14V11H20.6V14H19.1ZM15.6 12.15L14.45 11H15.6V12.15ZM16.6 10V8.7C16.6 8.05 16.4083 7.55417 16.025 7.2125C15.6417 6.87083 15.1833 6.7 14.65 6.7H13.1C12.1667 6.7 11.375 6.375 10.725 5.725C10.075 5.075 9.75 4.28333 9.75 3.35C9.75 2.41667 10.075 1.625 10.725 0.975C11.375 0.325 12.1667 0 13.1 0V1.5C12.6 1.5 12.1667 1.675 11.8 2.025C11.4333 2.375 11.25 2.81667 11.25 3.35C11.25 3.88333 11.4333 4.325 11.8 4.675C12.1667 5.025 12.6 5.2 13.1 5.2H14.65C15.5833 5.2 16.3917 5.5 17.075 6.1C17.7583 6.7 18.1 7.45 18.1 8.35V10H16.6ZM19.1 10V7.75C19.1 6.65 18.7167 5.7 17.95 4.9C17.1833 4.1 16.2333 3.7 15.1 3.7V2.2C15.6 2.2 16.0333 2.01667 16.4 1.65C16.7667 1.28333 16.95 0.85 16.95 0.35H18.45C18.45 0.833333 18.3583 1.27083 18.175 1.6625C17.9917 2.05417 17.75 2.41667 17.45 2.75C18.3833 3.18333 19.1417 3.85 19.725 4.75C20.3083 5.65 20.6 6.65 20.6 7.75V10H19.1Z" fill="#c62828"/>
</svg>
