<svg width="44" height="41" viewBox="0 0 44 41" fill="none" xmlns="http://www.w3.org/2000/svg">
<path d="M4.48875 40.6222C3.38892 40.6414 2.44056 40.2662 1.64367 39.4967C0.846785 38.7271 0.438744 37.7924 0.419546 36.6926L0.000688568 12.6963C-0.0185091 11.5964 0.356664 10.6481 1.12621 9.85119C1.89575 9.0543 2.83044 8.64626 3.93027 8.62706L10.2293 8.51711L13.8589 4.45315L25.8571 4.24372L25.9269 8.24311L15.6785 8.422L12.0988 12.4851L4.00008 12.6265L4.41894 36.6228L36.4141 36.0643L36.0999 18.0671L40.0993 17.9973L40.4135 35.9945C40.4327 37.0944 40.0575 38.0427 39.2879 38.8396C38.5184 39.6365 37.5837 40.0445 36.4839 40.0637L4.48875 40.6222ZM35.9952 12.068L35.9254 8.06859L31.926 8.1384L31.8562 4.139L35.8556 4.0692L35.7858 0.0698032L39.7852 -6.4075e-06L39.855 3.99939L43.8544 3.92958L43.9242 7.92897L39.9248 7.99878L39.9946 11.9982L35.9952 12.068ZM20.3641 33.344C22.8638 33.3004 24.9732 32.3884 26.6924 30.6082C28.4116 28.8279 29.2493 26.6879 29.2057 24.1883C29.1621 21.6887 28.2501 19.5793 26.4698 17.8601C24.6896 16.1409 22.5496 15.3031 20.05 15.3468C17.5504 15.3904 15.441 16.3023 13.7218 18.0826C12.0026 19.8629 11.1648 22.0028 11.2084 24.5025C11.2521 27.0021 12.164 29.1115 13.9443 30.8307C15.7246 32.5499 17.8645 33.3877 20.3641 33.344ZM20.2943 29.3446C18.8946 29.3691 17.703 28.9065 16.7196 27.9568C15.7362 27.0072 15.2323 25.8324 15.2078 24.4327C15.1834 23.0329 15.646 21.8413 16.5957 20.8579C17.5453 19.8745 18.72 19.3706 20.1198 19.3462C21.5196 19.3217 22.7112 19.7843 23.6946 20.734C24.678 21.6836 25.1819 22.8583 25.2063 24.2581C25.2308 25.6579 24.7681 26.8495 23.8185 27.8329C22.8688 28.8163 21.6941 29.3202 20.2943 29.3446Z" fill="#94A3B8"/>
</svg>
