<svg width="11" height="12" viewBox="0 0 11 12" fill="none" xmlns="http://www.w3.org/2000/svg">
<path d="M1.49255 11.9243C1.17191 11.9355 0.89344 11.8309 0.657134 11.6105C0.420827 11.3902 0.297075 11.1197 0.285878 10.799L0.000865756 2.63733C-0.0103312 2.31669 0.0942501 2.03822 0.31461 1.80192C0.534969 1.56561 0.805468 1.44186 1.12611 1.43066L1.70908 1.4103L1.66837 0.244346L2.83432 0.20363L2.87504 1.36959L7.53887 1.20672L7.49815 0.0407654L8.66411 4.93033e-05L8.70482 1.16601L9.2878 1.14565C9.60844 1.13445 9.88691 1.23903 10.1232 1.45939C10.3595 1.67975 10.4833 1.95025 10.4945 2.27089L10.7795 10.4326C10.7907 10.7532 10.6861 11.0317 10.4657 11.268C10.2454 11.5043 9.97488 11.6281 9.65424 11.6393L1.49255 11.9243ZM1.45183 10.7583L9.61353 10.4733L9.40995 4.64352L1.24825 4.92853L1.45183 10.7583ZM1.20754 3.76257L9.36923 3.47756L9.32851 2.3116L1.16682 2.59662L1.20754 3.76257ZM1.20754 3.76257L1.16682 2.59662L1.20754 3.76257Z" fill="#94A3B8"/>
</svg>
