<svg width="10" height="12" viewBox="0 0 10 12" fill="none" xmlns="http://www.w3.org/2000/svg">
<path d="M4.62943 5.83298C4.95007 5.84417 5.22854 5.73959 5.46485 5.51923C5.70116 5.29887 5.82491 5.02837 5.83611 4.70774C5.8473 4.3871 5.74272 4.10863 5.52236 3.87232C5.302 3.63601 5.0315 3.51226 4.71087 3.50106C4.39023 3.48987 4.11176 3.59445 3.87545 3.81481C3.63914 4.03517 3.51539 4.30567 3.50419 4.6263C3.493 4.94694 3.59758 5.22542 3.81794 5.46172C4.0383 5.69803 4.3088 5.82178 4.62943 5.83298ZM4.4798 10.1179C5.70319 9.07104 6.61704 8.11311 7.22135 7.24409C7.82566 6.37506 8.13986 5.59562 8.16395 4.90576C8.20093 3.84669 7.89357 2.96772 7.24187 2.26885C6.59017 1.56999 5.77364 1.20342 4.7923 1.16915C3.81095 1.13488 2.97085 1.4436 2.27198 2.0953C1.57312 2.747 1.20519 3.60239 1.16821 4.66147C1.14412 5.35133 1.40318 6.15078 1.9454 7.05984C2.48761 7.96891 3.33242 8.98825 4.4798 10.1179ZM4.42585 11.6628C2.90801 10.277 1.7828 8.9998 1.05023 7.83116C0.317647 6.66252 -0.0316766 5.59238 0.00225352 4.62075C0.0531486 3.16331 0.562507 2.01858 1.53033 1.18657C2.49815 0.354564 3.59904 -0.0398948 4.83301 0.00319636C6.06698 0.0462875 7.13768 0.51658 8.04511 1.41407C8.95253 2.31157 9.3808 3.48904 9.3299 4.94648C9.29597 5.91811 8.87285 6.96127 8.06054 8.07596C7.24822 9.19065 6.03666 10.3863 4.42585 11.6628Z" fill="#CBD5E1"/>
</svg>
