<svg width="44" height="41" viewBox="0 0 44 41" fill="none" xmlns="http://www.w3.org/2000/svg">
<path d="M-2.54214e-05 34.9564L2.20904 24.5636L41.2619 -0.744898C41.8549 -1.13002 42.4831 -1.37987 43.1464 -1.49446C43.8097 -1.60906 44.4471 -1.60138 45.0584 -1.47143C45.7105 -1.33283 46.3061 -1.07845 46.845 -0.708296C47.384 -0.338145 47.8257 0.139113 48.1701 0.72348L50.8659 4.87469C51.2597 5.42696 51.516 6.02457 51.6349 6.66751C51.7539 7.31046 51.744 7.95798 51.6054 8.61008C51.4755 9.22142 51.2233 9.80677 50.8488 10.3661C50.4743 10.9255 49.9905 11.3977 49.3975 11.7829L10.3928 37.1655L-2.54214e-05 34.9564ZM5.93027 31.1053L9.35379 31.8329L38.4734 12.9752L37.1385 10.8384L35.7294 8.74982L6.65797 27.6817L5.93027 31.1053ZM46.7017 7.63165L43.9577 3.40631L46.7017 7.63165ZM37.1385 10.8384L35.7294 8.74982L38.4734 12.9752L37.1385 10.8384ZM24.4537 40.1542C27.4696 40.7953 30.4217 40.6347 33.3099 39.6725C36.198 38.7103 37.928 36.8842 38.4998 34.1943C38.8116 32.7271 38.693 31.3814 38.1439 30.1571C37.5947 28.9329 36.7504 27.7949 35.6108 26.7434L31.2372 29.5836C32.0879 30.1904 32.7263 30.7947 33.1521 31.3964C33.578 31.9981 33.7303 32.5842 33.609 33.1548C33.4098 34.0922 32.4862 34.7798 30.8383 35.2176C29.1905 35.6553 27.4088 35.6707 25.4932 35.2635C24.8004 35.1162 24.1698 35.2271 23.6015 35.5962C23.0332 35.9653 22.6754 36.4962 22.5281 37.1891C22.3808 37.8819 22.4917 38.5125 22.8608 39.0809C23.2299 39.6492 23.7608 40.007 24.4537 40.1542ZM5.38238 16.5482L9.8301 13.6598C9.08428 13.1605 8.51384 12.6879 8.11878 12.2418C7.72372 11.7958 7.56518 11.3893 7.64314 11.0225C7.7471 10.5334 8.21786 10.1223 9.05543 9.7892C9.893 9.45606 11.602 9.03126 14.1824 8.51481C18.0982 7.72842 20.7813 6.82912 22.2318 5.8169C23.6822 4.80469 24.5764 3.50384 24.9143 1.91435C25.3907 -0.327241 24.8731 -2.30091 23.3614 -4.00666C21.8497 -5.7124 19.6266 -6.87715 16.6921 -7.50088C14.8581 -7.89072 13.1484 -7.91335 11.5629 -7.56879C9.97745 -7.22423 8.69792 -6.66555 7.7243 -5.89276C7.16337 -5.45822 6.85435 -4.90624 6.79725 -4.23681C6.74016 -3.56739 6.93321 -2.97259 7.37641 -2.4524C7.81095 -1.89147 8.36293 -1.58245 9.03235 -1.52536C9.70178 -1.46826 10.3083 -1.61623 10.8519 -1.96925C11.5438 -2.41855 12.2621 -2.69184 13.007 -2.78911C13.7518 -2.88637 14.6337 -2.82672 15.6526 -2.61014C17.3236 -2.25496 18.5045 -1.74837 19.1953 -1.09036C19.886 -0.432361 20.1621 0.22269 20.0235 0.874788C19.9022 1.44537 19.4352 1.88921 18.6223 2.20631C17.8095 2.5234 15.9936 3.00003 13.1747 3.63619C9.61103 4.36961 7.07402 5.18283 5.56368 6.07582C4.05334 6.96882 3.11625 8.2712 2.7524 9.98296C2.47519 11.2872 2.58555 12.4714 3.08349 13.5357C3.58142 14.6 4.34772 15.6041 5.38238 16.5482Z" fill="#FF2E63" fill-opacity="0.1"/>
</svg>
