<svg width="20" height="20" viewBox="0 0 20 20" fill="none" xmlns="http://www.w3.org/2000/svg">
<path d="M7.08048 12.3537C6.7307 12.3659 6.43083 12.2555 6.18087 12.0224C5.93092 11.7893 5.79983 11.4979 5.78762 11.1481C5.7754 10.7983 5.88584 10.4984 6.11893 10.2485C6.35201 9.99853 6.64345 9.86745 6.99323 9.85523C7.34302 9.84302 7.64289 9.95346 7.89284 10.1865C8.1428 10.4196 8.27388 10.7111 8.2861 11.0608C8.29831 11.4106 8.18788 11.7105 7.95479 11.9605C7.72171 12.2104 7.43027 12.3415 7.08048 12.3537ZM13.0768 12.1443C12.727 12.1565 12.4272 12.0461 12.1772 11.813C11.9273 11.5799 11.7962 11.2885 11.784 10.9387C11.7718 10.5889 11.8822 10.289 12.1153 10.0391C12.3484 9.78914 12.6398 9.65805 12.9896 9.64584C13.3394 9.63362 13.6392 9.74406 13.8892 9.97714C14.1391 10.2102 14.2702 10.5017 14.2824 10.8515C14.2947 11.2012 14.1842 11.5011 13.9511 11.7511C13.7181 12.001 13.4266 12.1321 13.0768 12.1443ZM10.2793 17.9955C12.5113 17.9176 14.3748 17.077 15.8697 15.4739C17.3647 13.8707 18.0732 11.9532 17.9953 9.72119C17.9813 9.32143 17.9428 8.93504 17.8797 8.56201C17.8167 8.18899 17.7124 7.82991 17.5669 7.48477C17.2201 7.58027 16.8725 7.65495 16.5241 7.7088C16.1758 7.76266 15.8101 7.79628 15.427 7.80965C13.9112 7.86259 12.4674 7.58781 11.0956 6.98532C9.72371 6.38283 8.54271 5.51518 7.55257 4.38238C7.06494 5.7002 6.34231 6.85529 5.38469 7.84765C4.42707 8.84001 3.29877 9.60068 1.99977 10.1297C2.00093 10.163 2.0018 10.188 2.00239 10.2046C2.00297 10.2213 2.00384 10.2463 2.005 10.2796C2.08295 12.5116 2.92349 14.375 4.52664 15.87C6.12979 17.3649 8.04735 18.0735 10.2793 17.9955ZM10.3491 19.9943C8.96664 20.0426 7.65827 19.8256 6.42402 19.3434C5.18977 18.8612 4.10722 18.186 3.17635 17.318C2.24549 16.4499 1.49649 15.4171 0.92935 14.2195C0.362209 13.0219 0.0544992 11.7319 0.00622156 10.3494C-0.0420561 8.96689 0.174915 7.65852 0.657134 6.42427C1.13935 5.19002 1.81448 4.10747 2.68253 3.17661C3.55057 2.24575 4.58339 1.49674 5.781 0.929602C6.9786 0.362461 8.26865 0.0547514 9.65114 0.00647376C11.0336 -0.0418039 12.342 0.175167 13.5762 0.657386C14.8105 1.13961 15.893 1.81474 16.8239 2.68278C17.7548 3.55082 18.5038 4.58364 19.0709 5.78125C19.6381 6.97885 19.9458 8.2689 19.994 9.65139C20.0423 11.0339 19.8253 12.3422 19.3431 13.5765C18.8609 14.8107 18.1858 15.8933 17.3177 16.8242C16.4497 17.755 15.4169 18.504 14.2193 19.0712C13.0217 19.6383 11.7316 19.946 10.3491 19.9943ZM8.37612 2.17729C9.11641 3.31882 10.0986 4.22259 11.3225 4.88862C12.5465 5.55464 13.8914 5.86206 15.3572 5.81087C15.5904 5.80273 15.8148 5.78238 16.0305 5.74984C16.2461 5.71729 16.47 5.68029 16.702 5.63883C15.9617 4.49731 14.9796 3.59353 13.7556 2.92751C12.5316 2.26149 11.1867 1.95407 9.72094 2.00526C9.48774 2.0134 9.26332 2.03374 9.04766 2.06629C8.83199 2.09884 8.60815 2.13584 8.37612 2.17729ZM2.34162 7.74129C3.17424 7.22858 3.89364 6.57808 4.49983 5.78978C5.10602 5.00147 5.55078 4.12709 5.8341 3.16661C5.00148 3.67932 4.28208 4.32982 3.67589 5.11812C3.0697 5.90642 2.62494 6.78081 2.34162 7.74129Z" fill="#1E293B"/>
</svg>
