<svg width="23" height="12" viewBox="0 0 23 12" fill="none" xmlns="http://www.w3.org/2000/svg">
<path d="M5.94771 7.99953C5.39789 7.98513 4.93235 7.77704 4.55107 7.37526C4.16979 6.97347 3.98635 6.49768 4.00075 5.94786C4.01514 5.39805 4.22323 4.93251 4.62502 4.55123C5.0268 4.16995 5.5026 3.98651 6.05241 4.0009C6.60223 4.0153 7.06777 4.22339 7.44905 4.62518C7.83033 5.02696 8.01377 5.50276 7.99937 6.05257C7.98498 6.60238 7.77689 7.06793 7.3751 7.44921C6.97332 7.83049 6.49752 8.01393 5.94771 7.99953ZM5.843 11.9982C4.1769 11.9545 2.77599 11.3343 1.64027 10.1375C0.504539 8.9407 -0.0415099 7.50925 0.00211829 5.84316C0.0457465 4.17706 0.665964 2.77615 1.86277 1.64042C3.05958 0.504697 4.49103 -0.0413519 6.15712 0.00227624C7.27341 0.0315071 8.27836 0.332917 9.17198 0.906506C10.0656 1.48009 10.7672 2.22371 11.2768 3.13737L20.0738 3.36772L22.9942 6.44523L18.378 10.8259L16.4179 9.27405L14.3793 10.7212L12.2943 9.16607L11.1197 9.13531C10.563 10.021 9.82347 10.7269 8.90105 11.253C7.97863 11.779 6.95928 12.0274 5.843 11.9982ZM5.89535 9.99885C6.82837 10.0233 7.65633 9.76153 8.37926 9.2136C9.10218 8.66567 9.59161 7.96157 9.84755 7.10131L12.9715 7.18311L14.3942 8.24572L16.4834 6.7749L18.2218 8.1959L20.1452 6.37062L19.1717 5.34479L9.89991 5.102C9.68934 4.22952 9.23743 3.50077 8.54417 2.91576C7.85092 2.33074 7.03778 2.02602 6.10477 2.00159C5.00515 1.9728 4.05355 2.33968 3.24998 3.10224C2.44641 3.8648 2.03023 4.79589 2.00143 5.89551C1.97264 6.99513 2.33952 7.94673 3.10208 8.7503C3.86464 9.55387 4.79573 9.97005 5.89535 9.99885Z" fill="#FF2E62"/>
</svg>
