<svg width="31" height="25" viewBox="0 0 31 25" fill="none" xmlns="http://www.w3.org/2000/svg">
<path d="M15.0379 19.7949C15.4628 19.8055 15.8229 19.6708 16.1181 19.3906C16.4134 19.1104 16.5668 18.7579 16.5784 18.3331C16.59 17.9082 16.456 17.5485 16.1765 17.2539C15.8969 16.9593 15.5447 16.8066 15.1199 16.796C14.695 16.7853 14.3349 16.9201 14.0397 17.2003C13.7444 17.4804 13.591 17.8329 13.5794 18.2578C13.5678 18.6826 13.7017 19.0424 13.9813 19.337C14.2608 19.6316 14.6131 19.7842 15.0379 19.7949ZM15.2018 13.7971C15.6266 13.8078 15.9867 13.673 16.282 13.3928C16.5772 13.1126 16.7307 12.7601 16.7423 12.3353C16.7539 11.9105 16.6199 11.5507 16.3403 11.2561C16.0608 10.9615 15.7086 10.8089 15.2837 10.7982C14.8588 10.7876 14.4988 10.9223 14.2035 11.2025C13.9083 11.4827 13.7548 11.8352 13.7432 12.26C13.7316 12.6849 13.8656 13.0446 14.1451 13.3392C14.4247 13.6338 14.7769 13.7864 15.2018 13.7971ZM15.3656 7.79934C15.7905 7.81001 16.1506 7.67525 16.4458 7.39507C16.7411 7.11489 16.8945 6.76238 16.9061 6.33754C16.9177 5.9127 16.7838 5.55297 16.5042 5.25837C16.2247 4.96376 15.8724 4.81113 15.4476 4.80046C15.0227 4.7898 14.6626 4.92456 14.3674 5.20474C14.0721 5.48491 13.9187 5.83742 13.9071 6.26227C13.8955 6.68711 14.0294 7.04683 14.309 7.34144C14.5886 7.63604 14.9408 7.78868 15.3656 7.79934ZM26.9112 24.5943L2.91881 23.9921C2.09407 23.9714 1.39606 23.66 0.824795 23.058C0.253525 22.456 -0.0208452 21.7426 0.00168553 20.9179L0.165545 14.9202C0.990285 14.9409 1.70434 14.665 2.30769 14.0924C2.91105 13.5199 3.224 12.8213 3.24653 11.9966C3.26906 11.1719 2.99469 10.4585 2.42342 9.8565C1.85215 9.25448 1.15415 8.94312 0.329405 8.92242L0.493265 2.92466C0.515796 2.09997 0.828741 1.40135 1.4321 0.828813C2.03546 0.256274 2.74951 -0.0196463 3.57425 0.00105353L27.5667 0.603232C28.3914 0.623932 29.0894 0.935292 29.6607 1.53731C30.232 2.13934 30.5063 2.85269 30.4838 3.67738L30.3199 9.67514C29.4952 9.65444 28.7812 9.93036 28.1778 10.5029C27.5744 11.0754 27.2615 11.7741 27.239 12.5988C27.2164 13.4234 27.4908 14.1368 28.0621 14.7388C28.6333 15.3408 29.3313 15.6522 30.1561 15.6729L29.9922 21.6707C29.9697 22.4954 29.6568 23.194 29.0534 23.7665C28.45 24.3391 27.736 24.615 26.9112 24.5943ZM26.9932 21.5954L27.0976 17.7718C26.1879 17.1988 25.4769 16.4495 24.9645 15.5238C24.4521 14.5982 24.2106 13.5981 24.2399 12.5235C24.2693 11.4489 24.5651 10.4622 25.1273 9.56357C25.6896 8.6649 26.4406 7.95227 27.3803 7.42568L27.4848 3.60211L3.49232 2.99993L3.38786 6.82351C4.29755 7.39651 5.0086 8.14583 5.52101 9.07148C6.03342 9.99713 6.27494 10.9972 6.24558 12.0718C6.21623 13.1464 5.92042 14.1331 5.35817 15.0318C4.79592 15.9304 4.04493 16.6431 3.1052 17.1696L3.00074 20.9932L26.9932 21.5954Z" fill="white"/>
</svg>
