<svg width="17" height="22" viewBox="0 0 17 22" fill="none" xmlns="http://www.w3.org/2000/svg">
<path d="M1.96512 7.10453L10.9638 6.94746L10.9289 4.94777C10.9143 4.11456 10.6103 3.41142 10.0169 2.83836C9.42347 2.2653 8.71016 1.98604 7.87695 2.00058C7.04374 2.01512 6.34061 2.31911 5.76754 2.91253C5.19448 3.50596 4.91522 4.21927 4.92976 5.05248L2.93007 5.08739C2.90593 3.70426 3.37277 2.51677 4.33061 1.5249C5.28844 0.533031 6.45892 0.0250262 7.84205 0.000883728C9.22517 -0.0232588 10.4127 0.443588 11.4045 1.40142C12.3964 2.35926 12.9044 3.52974 12.9285 4.91286L12.9635 6.91256L13.9633 6.89511C14.5132 6.88551 14.9874 7.07309 15.3858 7.45786C15.7843 7.84264 15.9883 8.30998 15.9979 8.8599L16.1724 18.8584C16.182 19.4083 15.9944 19.8825 15.6097 20.2809C15.2249 20.6794 14.7576 20.8834 14.2076 20.893L2.20946 21.1024C1.65954 21.112 1.18536 20.9244 0.78692 20.5396C0.388477 20.1549 0.184456 19.6875 0.174857 19.1376L0.00033332 9.13914C-0.0092655 8.58922 0.178321 8.11504 0.563092 7.7166C0.947864 7.31815 1.41521 7.11413 1.96512 7.10453ZM2.17455 19.1027L14.1727 18.8933L13.9982 8.8948L2.00003 9.10423L2.17455 19.1027ZM8.12128 15.9985C8.6712 15.9889 9.13855 15.7848 9.52332 15.3864C9.90809 14.9879 10.0957 14.5138 10.0861 13.9639C10.0765 13.4139 9.87246 12.9466 9.47401 12.5618C9.07557 12.177 8.60139 11.9895 8.05147 11.9991C7.50156 12.0087 7.03421 12.2127 6.64944 12.6111C6.26467 13.0096 6.07708 13.4837 6.08668 14.0337C6.09628 14.5836 6.3003 15.0509 6.69875 15.4357C7.09719 15.8205 7.57137 16.0081 8.12128 15.9985ZM2.17455 19.1027L2.00003 9.10423L2.17455 19.1027Z" fill="#0F172A" fill-opacity="0.6"/>
</svg>
