<svg width="13" height="12" viewBox="0 0 13 12" fill="none" xmlns="http://www.w3.org/2000/svg">
<path d="M0 11.9583L2.91667 3.79167L8.16667 9.04167L0 11.9583ZM1.925 10.0333L6.0375 8.575L3.38333 5.92083L1.925 10.0333ZM7.32083 6.44583L6.70833 5.83333L9.975 2.56667C10.2861 2.25556 10.6604 2.1 11.0979 2.1C11.5354 2.1 11.9097 2.25556 12.2208 2.56667L12.5708 2.91667L11.9583 3.52917L11.6083 3.17917C11.4722 3.04306 11.3021 2.975 11.0979 2.975C10.8938 2.975 10.7236 3.04306 10.5875 3.17917L7.32083 6.44583ZM4.9875 4.1125L4.375 3.5L4.725 3.15C4.86111 3.01389 4.92917 2.84861 4.92917 2.65417C4.92917 2.45972 4.86111 2.29444 4.725 2.15833L4.34583 1.77917L4.95833 1.16667L5.3375 1.54583C5.64861 1.85694 5.80417 2.22639 5.80417 2.65417C5.80417 3.08194 5.64861 3.45139 5.3375 3.7625L4.9875 4.1125ZM6.15417 5.27917L5.54167 4.66667L7.64167 2.56667C7.77778 2.43056 7.84583 2.26042 7.84583 2.05625C7.84583 1.85208 7.77778 1.68194 7.64167 1.54583L6.70833 0.6125L7.32083 0L8.25417 0.933333C8.56528 1.24444 8.72083 1.61875 8.72083 2.05625C8.72083 2.49375 8.56528 2.86806 8.25417 3.17917L6.15417 5.27917ZM8.4875 7.6125L7.875 7L8.80833 6.06667C9.11944 5.75556 9.49375 5.6 9.93125 5.6C10.3687 5.6 10.7431 5.75556 11.0542 6.06667L11.9875 7L11.375 7.6125L10.4417 6.67917C10.3056 6.54306 10.1354 6.475 9.93125 6.475C9.72708 6.475 9.55694 6.54306 9.42083 6.67917L8.4875 7.6125Z" fill="#854D0E"/>
</svg>
