<svg width="21" height="21" viewBox="0 0 21 21" fill="none" xmlns="http://www.w3.org/2000/svg">
<path d="M3.31405 20.2591C2.76413 20.2687 2.28995 20.0811 1.89151 19.6963C1.49306 19.3116 1.28904 18.8442 1.27945 18.2943L1.08267 7.02101C0.779515 6.84294 0.533741 6.60969 0.345345 6.32127C0.156949 6.03285 0.0594062 5.697 0.0527161 5.31372L0.000358902 2.31418C-0.00923992 1.76426 0.178346 1.29008 0.563118 0.891641C0.94789 0.493198 1.41523 0.289178 1.96515 0.279579L17.9627 0.000340439C18.5126 -0.00925837 18.9868 0.178328 19.3853 0.5631C19.7837 0.947871 19.9877 1.41522 19.9973 1.96513L20.0497 4.96468C20.0564 5.34795 19.9706 5.687 19.7924 5.98182C19.6142 6.27664 19.3767 6.51832 19.0799 6.70687L19.2767 17.9802C19.2863 18.5301 19.0987 19.0042 18.714 19.4027C18.3292 19.8011 17.8618 20.0052 17.3119 20.0148L3.31405 20.2591ZM3.08716 7.26106L3.27914 18.2594L17.277 18.0151L17.085 7.01673L3.08716 7.26106ZM2.05241 5.27882L18.05 4.99958L17.9976 2.00004L2.00005 2.27927L2.05241 5.27882ZM7.17382 12.1905L13.1729 12.0858L13.138 10.0861L7.13891 10.1908L7.17382 12.1905Z" fill="#0F172A" fill-opacity="0.6"/>
</svg>
