<svg width="10" height="10" viewBox="0 0 10 10" fill="none" xmlns="http://www.w3.org/2000/svg">
<path d="M2.75 7.25L6.25 6.25L7.25 2.75L3.75 3.75L2.75 7.25ZM5 5.75C4.79167 5.75 4.61458 5.67708 4.46875 5.53125C4.32292 5.38542 4.25 5.20833 4.25 5C4.25 4.79167 4.32292 4.61458 4.46875 4.46875C4.61458 4.32292 4.79167 4.25 5 4.25C5.20833 4.25 5.38542 4.32292 5.53125 4.46875C5.67708 4.61458 5.75 4.79167 5.75 5C5.75 5.20833 5.67708 5.38542 5.53125 5.53125C5.38542 5.67708 5.20833 5.75 5 5.75ZM5 10C4.30833 10 3.65833 9.86875 3.05 9.60625C2.44167 9.34375 1.9125 8.9875 1.4625 8.5375C1.0125 8.0875 0.65625 7.55833 0.39375 6.95C0.13125 6.34167 0 5.69167 0 5C0 4.30833 0.13125 3.65833 0.39375 3.05C0.65625 2.44167 1.0125 1.9125 1.4625 1.4625C1.9125 1.0125 2.44167 0.65625 3.05 0.39375C3.65833 0.13125 4.30833 0 5 0C5.69167 0 6.34167 0.13125 6.95 0.39375C7.55833 0.65625 8.0875 1.0125 8.5375 1.4625C8.9875 1.9125 9.34375 2.44167 9.60625 3.05C9.86875 3.65833 10 4.30833 10 5C10 5.69167 9.86875 6.34167 9.60625 6.95C9.34375 7.55833 8.9875 8.0875 8.5375 8.5375C8.0875 8.9875 7.55833 9.34375 6.95 9.60625C6.34167 9.86875 5.69167 10 5 10ZM5 9C6.10833 9 7.05208 8.61042 7.83125 7.83125C8.61042 7.05208 9 6.10833 9 5C9 3.89167 8.61042 2.94792 7.83125 2.16875C7.05208 1.38958 6.10833 1 5 1C3.89167 1 2.94792 1.38958 2.16875 2.16875C1.38958 2.94792 1 3.89167 1 5C1 6.10833 1.38958 7.05208 2.16875 7.83125C2.94792 8.61042 3.89167 9 5 9Z" fill="white"/>
</svg>
