<svg width="63" height="66" viewBox="0 0 63 66" fill="none" xmlns="http://www.w3.org/2000/svg">
<path d="M16.5876 79.8038C11.11 78.6395 6.19645 76.5046 1.84707 73.3991C-2.50231 70.2937 -6.07626 66.5862 -8.87478 62.2769C-11.6733 57.9675 -13.6065 53.1946 -14.6745 47.9582C-15.7424 42.7217 -15.6943 37.3646 -14.5299 31.887C-12.5063 22.3664 -7.68943 14.6151 -0.0794357 8.63328C7.53056 2.65143 16.2178 -0.221849 25.9823 0.0134397C23.4363 6.21972 22.4539 12.605 23.0351 19.1693C23.6164 25.7336 25.7299 31.8228 29.3757 37.4368C33.0214 43.0508 37.7245 47.4583 43.4849 50.6592C49.2453 53.8601 55.4781 55.5598 62.1833 55.7583C58.4919 64.7881 52.3499 71.5591 43.7574 76.0712C35.1648 80.5833 26.1082 81.8275 16.5876 79.8038V79.8038M18.2509 71.9786C23.9894 73.1984 29.6089 72.8934 35.1095 71.0638C40.6101 69.2341 45.2961 66.1067 49.1674 61.6815C43.6702 59.9678 38.6571 57.4199 34.128 54.0376C29.5989 50.6554 25.7682 46.5526 22.6359 41.7293C19.5036 36.906 17.2973 31.7343 16.0171 26.2141C14.7368 20.694 14.4644 15.0814 15.2 9.37628C9.58281 11.113 4.83266 14.1416 0.949543 18.462C-2.93358 22.7824 -5.48501 27.8118 -6.70476 33.5503C-8.57597 42.3536 -7.08533 50.4914 -2.23284 57.9636C2.61964 65.4357 9.44755 70.1074 18.2509 71.9786V71.9786M22.6359 41.7293V41.7293V41.7293V41.7293V41.7293V41.7293V41.7293V41.7293V41.7293V41.7293V41.7293V41.7293" fill="#FF2E62" fill-opacity="0.05"/>
</svg>
