<svg width="27" height="31" viewBox="0 0 27 31" fill="none" xmlns="http://www.w3.org/2000/svg">
<path d="M5.77972 29.8653L5.93679 20.8667L3.53715 20.8248C2.5373 20.8073 1.69354 20.4425 1.00586 19.7304C0.318187 19.0183 -0.0169249 18.1623 0.000527462 17.1625C0.0131805 16.4376 0.224821 15.7724 0.63545 15.167C1.04608 14.5616 1.57896 14.1146 2.2341 13.826L12.1335 9.6481L12.1505 8.67324C11.2563 8.33259 10.5409 7.77626 10.0043 7.00428C9.46773 6.2323 9.20772 5.37138 9.2243 4.42152C9.24611 3.17171 9.70209 2.11701 10.5922 1.25742C11.4824 0.397819 12.5523 -0.0210714 13.8021 0.000744121C15.052 0.0225596 16.1067 0.478536 16.9663 1.36867C17.8259 2.25881 18.2447 3.32879 18.2229 4.5786L15.2234 4.52624C15.2308 4.1013 15.0933 3.7426 14.8109 3.45012C14.5284 3.15765 14.1747 3.00771 13.7498 3.00029C13.3249 2.99287 12.9661 3.13038 12.6737 3.41282C12.3812 3.69526 12.2313 4.04895 12.2238 4.47388C12.2164 4.89882 12.3539 5.25752 12.6364 5.55C12.9188 5.84247 13.2725 5.99241 13.6974 5.99983C14.1224 6.00725 14.4761 6.1572 14.7585 6.44967C15.0409 6.74214 15.1784 7.10085 15.171 7.52578L15.1331 9.70045L24.8807 14.2213C25.5253 14.5326 26.0423 14.9979 26.4315 15.6173C26.8208 16.2367 27.0091 16.9088 26.9964 17.6337C26.979 18.6336 26.6142 19.4773 25.9021 20.165C25.19 20.8527 24.334 21.1878 23.3341 21.1703L20.9345 21.1284L20.7774 30.1271L5.77972 29.8653V29.8653M3.58951 17.8252L5.98914 17.8671L6.01532 16.3673L21.013 16.6291L20.9869 18.1289L23.3865 18.1708C23.5615 18.1738 23.7063 18.1139 23.821 17.9908C23.9356 17.8678 23.9947 17.7063 23.9982 17.5064C24.0004 17.3814 23.971 17.2746 23.91 17.186C23.8491 17.0974 23.7565 17.0271 23.6324 16.9749L13.5875 12.2989L3.38549 16.6215C3.25963 16.6693 3.1647 16.7364 3.10068 16.8228C3.03666 16.9092 3.00356 17.0149 3.00138 17.1399C2.99789 17.3398 3.0513 17.5033 3.1616 17.6302C3.2719 17.7572 3.41454 17.8222 3.58951 17.8252V17.8252M8.83162 26.9181L17.8302 27.0752L17.9611 19.5763L8.96251 19.4192L8.83162 26.9181V26.9181M8.96251 19.4192V19.4192L17.9611 19.5763V19.5763L8.96251 19.4192V19.4192" fill="white"/>
</svg>
