<svg width="25" height="32" viewBox="0 0 25 32" fill="none" xmlns="http://www.w3.org/2000/svg">
<path d="M3.47125 31.7278C2.64653 31.7494 1.93283 31.4742 1.33016 30.9023C0.727479 30.3304 0.415343 29.6321 0.393747 28.8074L0.00109322 13.8125C-0.0205027 12.9878 0.254659 12.2741 0.826579 11.6714C1.3985 11.0687 2.09682 10.7566 2.92153 10.735L4.42102 10.6957L4.34249 7.69677C4.28817 5.62248 4.97287 3.8352 6.39658 2.33491C7.8203 0.834632 9.5693 0.0573329 11.6436 0.00301588C13.7179 -0.0513012 15.5052 0.633398 17.0054 2.05711C18.5057 3.48083 19.283 5.22983 19.3373 7.30412L19.4159 10.3031L20.9154 10.2638C21.7401 10.2422 22.4538 10.5174 23.0565 11.0893C23.6591 11.6612 23.9713 12.3595 23.9929 13.1843L24.3855 28.1791C24.4071 29.0038 24.1319 29.7175 23.56 30.3202C22.9881 30.9229 22.2898 31.235 21.4651 31.2566L3.47125 31.7278V31.7278M3.39272 28.7288L21.3865 28.2576V28.2576V28.2576L20.9939 13.2628V13.2628V13.2628L3.00006 13.734V13.734V13.734L3.39272 28.7288V28.7288V28.7288V28.7288M12.2718 23.9948C13.0966 23.9732 13.7949 23.6611 14.3668 23.0584C14.9387 22.4557 15.2139 21.742 15.1923 20.9173C15.1707 20.0926 14.8585 19.3942 14.2559 18.8223C13.6532 18.2504 12.9395 17.9752 12.1148 17.9968C11.2901 18.0184 10.5917 18.3306 10.0198 18.9333C9.4479 19.5359 9.17274 20.2496 9.19433 21.0743C9.21593 21.8991 9.52807 22.5974 10.1307 23.1693C10.7334 23.7412 11.4471 24.0164 12.2718 23.9948V23.9948M7.41999 10.6172L16.4169 10.3816L16.3384 7.38265C16.3057 6.13308 15.8405 5.08239 14.9429 4.2306C14.0453 3.3788 12.9717 2.96927 11.7221 3.00199C10.4725 3.03471 9.42187 3.49987 8.57007 4.39748C7.71827 5.29508 7.30874 6.36867 7.34146 7.61824L7.41999 10.6172V10.6172M3.39272 28.7288V28.7288V28.7288L3.00006 13.734V13.734V13.734V13.734V13.734V13.734L3.39272 28.7288V28.7288V28.7288V28.7288V28.7288" fill="#FF2E62"/>
</svg>
