<svg width="48" height="50" viewBox="0 0 48 50" fill="none" xmlns="http://www.w3.org/2000/svg">
<path d="M35 50V42.5H27.5V37.5H35V30H40V37.5H47.5V42.5H40V50H35ZM5 45C3.625 45 2.44792 44.5104 1.46875 43.5312C0.489583 42.5521 0 41.375 0 40V10C0 8.625 0.489583 7.44792 1.46875 6.46875C2.44792 5.48958 3.625 5 5 5H7.5V0H12.5V5H27.5V0H32.5V5H35C36.375 5 37.5521 5.48958 38.5312 6.46875C39.5104 7.44792 40 8.625 40 10V25.25C39.1667 25.125 38.3333 25.0625 37.5 25.0625C36.6667 25.0625 35.8333 25.125 35 25.25V20H5V40H22.5C22.5 40.8333 22.5625 41.6667 22.6875 42.5C22.8125 43.3333 23.0417 44.1667 23.375 45H5ZM5 15H35V10H5V15ZM5 15V10V15Z" fill="#F1F5F9"/>
</svg>
