<svg width="56" height="56" viewBox="0 0 56 56" fill="none" xmlns="http://www.w3.org/2000/svg">
<path d="M28.5101 4.66614H27.4835C26.246 4.66614 25.0591 5.15775 24.184 6.03283C23.3089 6.9079 22.8173 8.09476 22.8173 9.3323V9.75226C22.8165 10.5705 22.6005 11.3742 22.191 12.0826C21.7815 12.7911 21.1929 13.3794 20.4842 13.7885L19.481 14.3718C18.7717 14.7813 17.967 14.9969 17.1479 14.9969C16.3289 14.9969 15.5242 14.7813 14.8149 14.3718L14.4649 14.1851C13.3942 13.5675 12.1221 13.3999 10.9279 13.7192C9.73379 14.0385 8.71513 14.8186 8.09557 15.8883L7.58229 16.7748C6.96464 17.8456 6.79708 19.1176 7.1164 20.3118C7.43571 21.5059 8.21581 22.5246 9.28545 23.1442L9.63541 23.3775C10.3406 23.7846 10.927 24.3692 11.3363 25.0732C11.7456 25.7772 11.9636 26.5761 11.9685 27.3904V28.5802C11.9718 29.4025 11.7577 30.211 11.348 30.9238C10.9383 31.6367 10.3475 32.2287 9.63541 32.6398L9.28545 32.8498C8.21581 33.4693 7.43571 34.488 7.1164 35.6822C6.79708 36.8763 6.96464 38.1484 7.58229 39.2191L8.09557 40.1057C8.71513 41.1753 9.73379 41.9554 10.9279 42.2747C12.1221 42.594 13.3942 42.4265 14.4649 41.8088L14.8149 41.6222C15.5242 41.2126 16.3289 40.997 17.1479 40.997C17.967 40.997 18.7717 41.2126 19.481 41.6222L20.4842 42.2054C21.1929 42.6146 21.7815 43.2029 22.191 43.9113C22.6005 44.6197 22.8165 45.4234 22.8173 46.2417V46.6616C22.8173 47.8992 23.3089 49.086 24.184 49.9611C25.0591 50.8362 26.246 51.3278 27.4835 51.3278H28.5101C29.7476 51.3278 30.9345 50.8362 31.8095 49.9611C32.6846 49.086 33.1762 47.8992 33.1762 46.6616V46.2417C33.1771 45.4234 33.3931 44.6197 33.8026 43.9113C34.2121 43.2029 34.8007 42.6146 35.5093 42.2054L36.5125 41.6222C37.2219 41.2126 38.0265 40.997 38.8456 40.997C39.6647 40.997 40.4693 41.2126 41.1787 41.6222L41.5287 41.8088C42.5994 42.4265 43.8715 42.594 45.0656 42.2747C46.2598 41.9554 47.2784 41.1753 47.898 40.1057L48.4113 39.1958C49.0289 38.125 49.1965 36.853 48.8772 35.6588C48.5578 34.4647 47.7777 33.446 46.7081 32.8265L46.3581 32.6398C45.6461 32.2287 45.0553 31.6367 44.6456 30.9238C44.2358 30.211 44.0218 29.4025 44.0251 28.5802V27.4137C44.0218 26.5915 44.2358 25.783 44.6456 25.0701C45.0553 24.3572 45.6461 23.7652 46.3581 23.3541L46.7081 23.1442C47.7777 22.5246 48.5578 21.5059 48.8772 20.3118C49.1965 19.1176 49.0289 17.8456 48.4113 16.7748L47.898 15.8883C47.2784 14.8186 46.2598 14.0385 45.0656 13.7192C43.8715 13.3999 42.5994 13.5675 41.5287 14.1851L41.1787 14.3718C40.4693 14.7813 39.6647 14.9969 38.8456 14.9969C38.0265 14.9969 37.2219 14.7813 36.5125 14.3718L35.5093 13.7885C34.8007 13.3794 34.2121 12.7911 33.8026 12.0826C33.3931 11.3742 33.1771 10.5705 33.1762 9.75226V9.3323C33.1762 8.09476 32.6846 6.9079 31.8095 6.03283C30.9345 5.15775 29.7476 4.66614 28.5101 4.66614Z" stroke="#E30613" stroke-width="3.49963" stroke-linecap="round" stroke-linejoin="round"/>
<path d="M27.9973 34.9963C31.8629 34.9963 34.9965 31.8626 34.9965 27.9971C34.9965 24.1315 31.8629 20.9978 27.9973 20.9978C24.1317 20.9978 20.998 24.1315 20.998 27.9971C20.998 31.8626 24.1317 34.9963 27.9973 34.9963Z" stroke="#E30613" stroke-width="3.49963" stroke-linecap="round" stroke-linejoin="round"/>
</svg>
