<svg width="31" height="25" viewBox="0 0 31 25" fill="none" xmlns="http://www.w3.org/2000/svg">
<path d="M15.0352 19.8088C15.46 19.8199 15.8199 19.6856 16.1149 19.4057C16.4098 19.1258 16.5628 18.7734 16.5739 18.3486C16.5851 17.9237 16.4507 17.5639 16.1708 17.2689C15.8909 16.974 15.5386 16.821 15.1137 16.8098C14.6889 16.7987 14.329 16.9331 14.034 17.213C13.7391 17.4928 13.5861 17.8452 13.575 18.2701C13.5638 18.6949 13.6982 19.0548 13.9781 19.3497C14.258 19.6447 14.6103 19.7977 15.0352 19.8088ZM15.1922 13.8109C15.6171 13.822 15.977 13.6876 16.2719 13.4077C16.5668 13.1279 16.7199 12.7755 16.731 12.3507C16.7421 11.9258 16.6077 11.5659 16.3279 11.271C16.048 10.9761 15.6956 10.823 15.2708 10.8119C14.8459 10.8008 14.486 10.9352 14.1911 11.215C13.8962 11.4949 13.7432 11.8473 13.732 12.2721C13.7209 12.697 13.8553 13.0569 14.1352 13.3518C14.415 13.6467 14.7674 13.7997 15.1922 13.8109ZM15.3493 7.81293C15.7742 7.82406 16.1341 7.68968 16.429 7.40981C16.7239 7.12993 16.8769 6.77757 16.8881 6.35271C16.8992 5.92786 16.7648 5.56797 16.4849 5.27304C16.2051 4.97811 15.8527 4.82509 15.4278 4.81396C15.003 4.80284 14.6431 4.93721 14.3482 5.21709C14.0532 5.49696 13.9002 5.84933 13.8891 6.27418C13.878 6.69904 14.0123 7.05893 14.2922 7.35385C14.5721 7.64878 14.9245 7.80181 15.3493 7.81293ZM26.9133 24.6214L2.92151 23.9931C2.09679 23.9716 1.39847 23.6594 0.826552 23.0567C0.254632 22.4541 -0.0205296 21.7404 0.00106636 20.9156L0.158128 14.9177C0.982845 14.9393 1.69654 14.6641 2.29922 14.0922C2.9019 13.5203 3.21403 12.822 3.23563 11.9973C3.25723 11.1725 2.98206 10.4589 2.41014 9.85617C1.83822 9.2535 1.13991 8.94136 0.315189 8.91976L0.472251 2.92182C0.493846 2.09711 0.805983 1.39879 1.40866 0.826868C2.01134 0.254948 2.72504 -0.0202137 3.54975 0.00138226L27.5415 0.629628C28.3662 0.651224 29.0646 0.963361 29.6365 1.56604C30.2084 2.16872 30.4836 2.88241 30.462 3.70713L30.3049 9.70507C29.4802 9.68348 28.7665 9.95864 28.1638 10.5306C27.5611 11.1025 27.249 11.8008 27.2274 12.6255C27.2058 13.4502 27.481 14.1639 28.0529 14.7666C28.6248 15.3693 29.3231 15.6814 30.1478 15.703L29.9908 21.701C29.9692 22.5257 29.657 23.224 29.0544 23.7959C28.4517 24.3678 27.738 24.643 26.9133 24.6214ZM26.9918 21.6224L27.0919 17.7987C26.1816 17.2247 25.4698 16.4746 24.9564 15.5483C24.4429 14.6221 24.2003 13.6216 24.2284 12.547C24.2566 11.4723 24.5512 10.486 25.1124 9.58786C25.6736 8.68974 26.4238 7.97788 27.3629 7.45229L27.463 3.6286L3.47122 3.00035L3.37109 6.82404C4.28138 7.39807 4.99324 8.14821 5.50667 9.07446C6.0201 10.0007 6.26274 11.0012 6.2346 12.0758C6.20646 13.1504 5.91179 14.1368 5.35059 15.0349C4.78938 15.933 4.03924 16.6449 3.10016 17.1705L3.00004 20.9942L26.9918 21.6224Z" fill="white"/>
</svg>
