<svg width="30" height="23" viewBox="0 0 30 23" fill="none" xmlns="http://www.w3.org/2000/svg">
<path d="M0 22.5V19.5H30V22.5H0ZM1.5 18V16.5C1.5 13.3 2.48125 10.475 4.44375 8.025C6.40625 5.575 8.925 4.025 12 3.375V3C12 2.175 12.2938 1.46875 12.8813 0.88125C13.4688 0.29375 14.175 0 15 0C15.825 0 16.5312 0.29375 17.1187 0.88125C17.7062 1.46875 18 2.175 18 3V3.375C21.1 4.025 23.625 5.575 25.575 8.025C27.525 10.475 28.5 13.3 28.5 16.5V18H1.5ZM4.575 15H25.425C25.075 12.4 23.9125 10.25 21.9375 8.55C19.9625 6.85 17.65 6 15 6C12.35 6 10.0437 6.85 8.08125 8.55C6.11875 10.25 4.95 12.4 4.575 15Z" fill="#c62828"/>
</svg>
